# xmcd CD database file
#
# Track frame offsets:
#	150
#	16048
#	34728
#	52255
#	72291
#	91754
#	111155
#	130627
#	151048
#	167833
#	184766
#	199477
#
# Disc length: 2854 seconds
#
# Revision: 1
# Processed by: cddbd v1.4PL0 Copyright (c) Steve Scherf et al.
# Submitted via: CDex 1.50Beta7
#
DISCID=990b240c
DTITLE=關心妍 - Jade II (特別版)
DYEAR=2002
DGENRE=Blues
TTITLE0=特別鳴謝(蕭正楠合唱)
TTITLE1=Without You(Saxophone Solo, Featuring by Jade Kwan)
TTITLE2=你有心
TTITLE3=手下敗將
TTITLE4=逃亡
TTITLE5=蜻蜓
TTITLE6=怎麼會愛上這個人
TTITLE7=辛苦大家
TTITLE8=音樂女神(國)
TTITLE9=完舞曲
TTITLE10=流星
TTITLE11=數手指
EXTD=YEAR: 2002
EXTT0=
EXTT1=
EXTT2=
EXTT3=
EXTT4=
EXTT5=
EXTT6=
EXTT7=
EXTT8=
EXTT9=
EXTT10=
EXTT11=
PLAYORDER=
